<mxfile host="app.diagrams.net" modified="2022-04-10T00:27:00.303Z" agent="5.0 (Windows NT 10.0; Win64; x64) AppleWebKit/537.36 (KHTML, like Gecko) Chrome/100.0.4896.75 Safari/537.36" etag="kNZnEuSxDIy3_JdQsJRs" version="17.4.0" type="github">
  <diagram id="C5RBs43oDa-KdzZeNtuy" name="Page-1">
    <mxGraphModel dx="1038" dy="547" grid="1" gridSize="10" guides="1" tooltips="1" connect="1" arrows="1" fold="1" page="1" pageScale="1" pageWidth="827" pageHeight="1169" math="0" shadow="0">
      <root>
        <mxCell id="WIyWlLk6GJQsqaUBKTNV-0" />
        <mxCell id="WIyWlLk6GJQsqaUBKTNV-1" parent="WIyWlLk6GJQsqaUBKTNV-0" />
        <mxCell id="gFQcucEWS_bXOnacTtc2-0" value="&lt;font style=&quot;font-size: 17px&quot;&gt;고객의 예약 정보 &lt;br&gt;입력받는다&lt;/font&gt;" style="rounded=1;whiteSpace=wrap;html=1;" parent="WIyWlLk6GJQsqaUBKTNV-1" vertex="1">
          <mxGeometry x="80" y="210" width="140" height="70" as="geometry" />
        </mxCell>
        <mxCell id="gFQcucEWS_bXOnacTtc2-1" value="예약한 &lt;br&gt;시간 정보 &lt;br&gt;확인한다" style="rounded=1;whiteSpace=wrap;html=1;fontSize=17;" parent="WIyWlLk6GJQsqaUBKTNV-1" vertex="1">
          <mxGeometry x="400" y="210" width="130" height="70" as="geometry" />
        </mxCell>
        <mxCell id="gFQcucEWS_bXOnacTtc2-2" value="&lt;h1&gt;Diagram&lt;/h1&gt;&lt;p&gt;발권&lt;/p&gt;" style="text;html=1;strokeColor=none;fillColor=none;spacing=5;spacingTop=-20;whiteSpace=wrap;overflow=hidden;rounded=0;fontSize=17;" parent="WIyWlLk6GJQsqaUBKTNV-1" vertex="1">
          <mxGeometry x="40" y="20" width="190" height="120" as="geometry" />
        </mxCell>
        <mxCell id="gFQcucEWS_bXOnacTtc2-3" value="고객의 예약 정보" style="endArrow=classic;html=1;rounded=0;fontSize=17;exitX=1;exitY=0.5;exitDx=0;exitDy=0;entryX=0;entryY=0.5;entryDx=0;entryDy=0;" parent="WIyWlLk6GJQsqaUBKTNV-1" source="gFQcucEWS_bXOnacTtc2-0" target="gFQcucEWS_bXOnacTtc2-1" edge="1">
          <mxGeometry width="50" height="50" relative="1" as="geometry">
            <mxPoint x="390" y="360" as="sourcePoint" />
            <mxPoint x="440" y="310" as="targetPoint" />
          </mxGeometry>
        </mxCell>
        <mxCell id="gFQcucEWS_bXOnacTtc2-5" value="시간에 따라 &lt;br&gt;부여된 고유의&lt;br&gt;코드를 적용한다" style="rounded=1;whiteSpace=wrap;html=1;fontSize=17;" parent="WIyWlLk6GJQsqaUBKTNV-1" vertex="1">
          <mxGeometry x="160" y="490" width="130" height="70" as="geometry" />
        </mxCell>
        <mxCell id="gFQcucEWS_bXOnacTtc2-7" value="예약된 시간 정보" style="edgeStyle=segmentEdgeStyle;endArrow=classic;html=1;rounded=0;fontSize=17;exitX=-0.032;exitY=0.496;exitDx=0;exitDy=0;entryX=0.5;entryY=0;entryDx=0;entryDy=0;exitPerimeter=0;" parent="WIyWlLk6GJQsqaUBKTNV-1" target="gFQcucEWS_bXOnacTtc2-5" edge="1">
          <mxGeometry width="50" height="50" relative="1" as="geometry">
            <mxPoint x="385.20000000000005" y="364.64" as="sourcePoint" />
            <mxPoint x="440" y="310" as="targetPoint" />
          </mxGeometry>
        </mxCell>
        <mxCell id="gFQcucEWS_bXOnacTtc2-9" value="" style="endArrow=classic;html=1;rounded=0;fontSize=17;exitX=0.5;exitY=1;exitDx=0;exitDy=0;" parent="WIyWlLk6GJQsqaUBKTNV-1" source="gFQcucEWS_bXOnacTtc2-1" edge="1">
          <mxGeometry width="50" height="50" relative="1" as="geometry">
            <mxPoint x="390" y="360" as="sourcePoint" />
            <mxPoint x="465" y="320" as="targetPoint" />
          </mxGeometry>
        </mxCell>
        <mxCell id="gFQcucEWS_bXOnacTtc2-10" value="예약한 좌석 번호" style="endArrow=classic;html=1;rounded=0;fontSize=17;exitX=0.496;exitY=0.984;exitDx=0;exitDy=0;exitPerimeter=0;" parent="WIyWlLk6GJQsqaUBKTNV-1" target="gFQcucEWS_bXOnacTtc2-11" edge="1">
          <mxGeometry x="0.4043" width="50" height="50" relative="1" as="geometry">
            <mxPoint x="464.4000000000001" y="408.55999999999995" as="sourcePoint" />
            <mxPoint x="464" y="470" as="targetPoint" />
            <Array as="points">
              <mxPoint x="464" y="550" />
            </Array>
            <mxPoint as="offset" />
          </mxGeometry>
        </mxCell>
        <mxCell id="gFQcucEWS_bXOnacTtc2-11" value="좌석 고유의 &lt;br&gt;번호 코드 &lt;br&gt;적용한다" style="rounded=1;whiteSpace=wrap;html=1;fontSize=17;" parent="WIyWlLk6GJQsqaUBKTNV-1" vertex="1">
          <mxGeometry x="405" y="610" width="120" height="70" as="geometry" />
        </mxCell>
        <mxCell id="gFQcucEWS_bXOnacTtc2-16" value="예시&amp;nbsp;" style="text;html=1;strokeColor=none;fillColor=none;align=center;verticalAlign=middle;whiteSpace=wrap;rounded=0;fontSize=17;" parent="WIyWlLk6GJQsqaUBKTNV-1" vertex="1">
          <mxGeometry x="30" y="720" width="50" height="60" as="geometry" />
        </mxCell>
        <mxCell id="gFQcucEWS_bXOnacTtc2-18" value="예약한 순서 번호" style="edgeStyle=segmentEdgeStyle;endArrow=classic;html=1;rounded=0;fontSize=17;exitX=1.008;exitY=0.504;exitDx=0;exitDy=0;exitPerimeter=0;entryX=0.5;entryY=0;entryDx=0;entryDy=0;" parent="WIyWlLk6GJQsqaUBKTNV-1" target="gFQcucEWS_bXOnacTtc2-19" edge="1">
          <mxGeometry width="50" height="50" relative="1" as="geometry">
            <mxPoint x="541.2" y="365.36" as="sourcePoint" />
            <mxPoint x="720" y="490" as="targetPoint" />
          </mxGeometry>
        </mxCell>
        <mxCell id="gFQcucEWS_bXOnacTtc2-19" value="예약 순번에&lt;br&gt;따라 코드 적용" style="rounded=1;whiteSpace=wrap;html=1;fontSize=17;" parent="WIyWlLk6GJQsqaUBKTNV-1" vertex="1">
          <mxGeometry x="650" y="485" width="130" height="70" as="geometry" />
        </mxCell>
        <mxCell id="gFQcucEWS_bXOnacTtc2-20" value="최종적인 예약 번호 : A1213" style="text;html=1;strokeColor=none;fillColor=none;align=center;verticalAlign=middle;whiteSpace=wrap;rounded=0;fontSize=17;" parent="WIyWlLk6GJQsqaUBKTNV-1" vertex="1">
          <mxGeometry x="332.5" y="860" width="265" height="60" as="geometry" />
        </mxCell>
        <mxCell id="gFQcucEWS_bXOnacTtc2-23" value="고유코드를 합쳐 &lt;br&gt;예약번호를 만든다" style="rounded=1;whiteSpace=wrap;html=1;fontSize=17;" parent="WIyWlLk6GJQsqaUBKTNV-1" vertex="1">
          <mxGeometry x="390" y="810" width="150" height="60" as="geometry" />
        </mxCell>
        <mxCell id="gFQcucEWS_bXOnacTtc2-24" value="&#xa;&#xa;&lt;span style=&quot;color: rgb(0, 0, 0); font-family: helvetica; font-size: 17px; font-style: normal; font-weight: 400; letter-spacing: normal; text-align: center; text-indent: 0px; text-transform: none; word-spacing: 0px; background-color: rgb(248, 249, 250); display: inline; float: none;&quot;&gt;정보에 따라&lt;/span&gt;&lt;br style=&quot;color: rgb(0, 0, 0); font-family: helvetica; font-size: 17px; font-style: normal; font-weight: 400; letter-spacing: normal; text-align: center; text-indent: 0px; text-transform: none; word-spacing: 0px; background-color: rgb(248, 249, 250);&quot;&gt;&lt;span style=&quot;color: rgb(0, 0, 0); font-family: helvetica; font-size: 17px; font-style: normal; font-weight: 400; letter-spacing: normal; text-align: center; text-indent: 0px; text-transform: none; word-spacing: 0px; background-color: rgb(248, 249, 250); display: inline; float: none;&quot;&gt;따로 처리&lt;/span&gt;&#xa;&#xa;" style="rhombus;whiteSpace=wrap;html=1;fontSize=17;" parent="WIyWlLk6GJQsqaUBKTNV-1" vertex="1">
          <mxGeometry x="390" y="320" width="150" height="150" as="geometry" />
        </mxCell>
        <mxCell id="gFQcucEWS_bXOnacTtc2-27" value="A타임 예약 =&amp;gt; 고유 코드 A" style="edgeStyle=segmentEdgeStyle;endArrow=classic;html=1;rounded=0;fontSize=17;exitX=0.25;exitY=1;exitDx=0;exitDy=0;entryX=0;entryY=0.5;entryDx=0;entryDy=0;" parent="WIyWlLk6GJQsqaUBKTNV-1" source="gFQcucEWS_bXOnacTtc2-5" target="gFQcucEWS_bXOnacTtc2-23" edge="1">
          <mxGeometry x="-0.1728" width="50" height="50" relative="1" as="geometry">
            <mxPoint x="390" y="700" as="sourcePoint" />
            <mxPoint x="360" y="840" as="targetPoint" />
            <Array as="points">
              <mxPoint x="200" y="560" />
              <mxPoint x="200" y="840" />
            </Array>
            <mxPoint y="1" as="offset" />
          </mxGeometry>
        </mxCell>
        <mxCell id="gFQcucEWS_bXOnacTtc2-28" value="12번 좌석 예약 =&amp;gt; 고유 코드 12" style="endArrow=classic;html=1;rounded=0;fontSize=17;entryX=0.5;entryY=0;entryDx=0;entryDy=0;exitX=0.5;exitY=1;exitDx=0;exitDy=0;" parent="WIyWlLk6GJQsqaUBKTNV-1" source="gFQcucEWS_bXOnacTtc2-11" target="gFQcucEWS_bXOnacTtc2-23" edge="1">
          <mxGeometry x="0.0769" width="50" height="50" relative="1" as="geometry">
            <mxPoint x="390" y="700" as="sourcePoint" />
            <mxPoint x="440" y="650" as="targetPoint" />
            <mxPoint as="offset" />
          </mxGeometry>
        </mxCell>
        <mxCell id="gFQcucEWS_bXOnacTtc2-31" value="13번째 예약자 =&amp;gt; 13" style="edgeStyle=segmentEdgeStyle;endArrow=classic;html=1;rounded=0;fontSize=17;exitX=0.5;exitY=1;exitDx=0;exitDy=0;entryX=1;entryY=0.5;entryDx=0;entryDy=0;" parent="WIyWlLk6GJQsqaUBKTNV-1" source="gFQcucEWS_bXOnacTtc2-19" target="gFQcucEWS_bXOnacTtc2-23" edge="1">
          <mxGeometry x="-0.1522" width="50" height="50" relative="1" as="geometry">
            <mxPoint x="390" y="760" as="sourcePoint" />
            <mxPoint x="440" y="710" as="targetPoint" />
            <Array as="points">
              <mxPoint x="715" y="840" />
            </Array>
            <mxPoint as="offset" />
          </mxGeometry>
        </mxCell>
      </root>
    </mxGraphModel>
  </diagram>
</mxfile>
